<svg xmlns="http://www.w3.org/2000/svg" version="1.1" xmlns:xlink="http://www.w3.org/1999/xlink" xmlns:svgjs="http://svgjs.dev/svgjs" width="2000" height="1500" viewBox="0 0 2000 1500"><rect width="2000" height="1500" fill="#010536"></rect><g transform="matrix(0.75,0,0,0.75,249.2944509233231,-0.7055490766767889)"><svg viewBox="0 0 338 338" data-background-color="#010536" preserveAspectRatio="xMidYMid meet" height="2000" width="2000" xmlns="http://www.w3.org/2000/svg" xmlns:xlink="http://www.w3.org/1999/xlink"><g id="tight-bounds" transform="matrix(1,0,0,1,0.15898372527786364,0.15898372527783522)"><svg viewBox="0 0 337.6820325494443 337.6820325494443" height="337.6820325494443" width="337.6820325494443"><g><svg></svg></g><g><svg viewBox="0 0 337.6820325494443 337.6820325494443" height="337.6820325494443" width="337.6820325494443"><g><path d="M0 168.841c0-93.248 75.593-168.841 168.841-168.841 93.248 0 168.841 75.593 168.841 168.841 0 93.248-75.593 168.841-168.841 168.841-93.248 0-168.841-75.593-168.841-168.841zM168.841 333.969c91.198 0 165.128-73.93 165.128-165.128 0-91.198-73.93-165.128-165.128-165.128-91.198 0-165.128 73.93-165.128 165.128 0 91.198 73.93 165.128 165.128 165.128z" data-fill-palette-color="tertiary" fill="#fbfbf8" stroke="transparent"></path><ellipse rx="162.08737562373324" ry="162.08737562373324" cx="168.84101627472214" cy="168.84101627472214" fill="#fbfbf8" stroke="transparent" stroke-width="0" fill-opacity="1" data-fill-palette-color="tertiary"></ellipse></g><g transform="matrix(1,0,0,1,64.08949909499941,73.06179566114358)"><svg viewBox="0 0 209.50303435944545 191.55844122715712" height="191.55844122715712" width="209.50303435944545"><g><svg viewBox="0 0 209.50303435944545 191.55844122715712" height="191.55844122715712" width="209.50303435944545"><g><svg viewBox="0 0 213.15844122715714 194.90075101169475" height="191.55844122715712" width="209.50303435944545"><g transform="matrix(1,0,0,1,0,117.23025828634407)"><svg viewBox="0 0 213.15844122715714 77.67049272535068" height="77.67049272535068" width="213.15844122715714"><g id="textblocktransform"><svg viewBox="0 0 213.15844122715714 77.67049272535068" height="77.67049272535068" width="213.15844122715714" id="textblock"><g><svg viewBox="0 0 213.15844122715714 41.89175240138521" height="41.89175240138521" width="213.15844122715714"><g transform="matrix(1,0,0,1,0,0)"><svg width="213.15844122715714" viewBox="3 -36 187.23 36.8" height="41.89175240138521" data-palette-color="#010536"><path d="M10.65-16.55L10.65-16.55 10.65-20.25Q13.15-20.25 14.55-21.75 15.95-23.25 15.95-25.95L15.95-25.95 20.5-25.95Q20.5-23.25 19.23-21.13 17.95-19 15.7-17.78 13.45-16.55 10.65-16.55ZM11.15 0L6.3 0 6.3-3.95 11.15-3.95 11.15 0ZM11.15-16.3L6.3-16.3 6.3-20.25 11.15-20.25 11.15-16.3ZM21-9.35L16.45-9.35 16.45-10.55 21-10.55 21-9.35ZM21-10.5L16.45-10.5Q16.45-13.25 15.05-14.78 13.65-16.3 11.15-16.3L11.15-16.3 11.15-20Q13.95-20 16.2-18.75 18.45-17.5 19.73-15.35 21-13.2 21-10.5L21-10.5ZM10.65-31.3L6.3-31.3 6.3-35.25 10.65-35.25 10.65-31.3ZM20.5-25.9L20.5-25.9 15.95-25.9Q15.95-28.5 14.55-29.9 13.15-31.3 10.65-31.3L10.65-31.3 10.65-35.25Q13.55-35.25 15.78-34.08 18-32.9 19.25-30.78 20.5-28.65 20.5-25.9ZM16.45-9.4L21-9.4Q21-6.6 19.75-4.5 18.5-2.4 16.28-1.2 14.05 0 11.15 0L11.15 0 11.15-3.95Q13.65-3.95 15.05-5.38 16.45-6.8 16.45-9.4L16.45-9.4ZM7.55 0L3 0 3-35.25 7.55-35.25 7.55 0ZM43.5-8.95L38.95-8.95 38.95-16.3 43.5-16.3 43.5-8.95ZM29.45-8.95L24.9-8.95 24.9-16.3 29.45-16.3 29.45-8.95ZM34.35-22.05L34.05-22.05 34.05-26 34.35-26 34.35-22.05ZM34.35 0.75L34.05 0.75 34.05-3.2 34.35-3.2 34.35 0.75ZM29.45-16.25L24.9-16.25Q24.9-19.05 26.12-21.25 27.35-23.45 29.42-24.73 31.5-26 34.15-26L34.15-26 34.15-22.05Q31.95-22.05 30.7-20.55 29.45-19.05 29.45-16.25L29.45-16.25ZM43.5-16.25L43.5-16.25 38.95-16.25Q38.95-19.05 37.72-20.55 36.5-22.05 34.25-22.05L34.25-22.05 34.25-26Q36.9-26 38.97-24.73 41.05-23.45 42.27-21.25 43.5-19.05 43.5-16.25ZM24.9-9L24.9-9 29.45-9Q29.45-6.25 30.7-4.73 31.95-3.2 34.15-3.2L34.15-3.2 34.15 0.75Q31.5 0.75 29.42-0.53 27.35-1.8 26.12-4 24.9-6.2 24.9-9ZM38.95-9L43.5-9Q43.5-6.2 42.27-4 41.05-1.8 38.97-0.53 36.9 0.75 34.25 0.75L34.25 0.75 34.25-3.2Q36.5-3.2 37.72-4.73 38.95-6.25 38.95-9L38.95-9ZM65.5-8.95L60.95-8.95 60.95-16.3 65.5-16.3 65.5-8.95ZM51.45-8.95L46.9-8.95 46.9-16.3 51.45-16.3 51.45-8.95ZM56.35-22.05L56.05-22.05 56.05-26 56.35-26 56.35-22.05ZM56.35 0.75L56.05 0.75 56.05-3.2 56.35-3.2 56.35 0.75ZM51.45-16.25L46.9-16.25Q46.9-19.05 48.12-21.25 49.35-23.45 51.42-24.73 53.5-26 56.15-26L56.15-26 56.15-22.05Q53.95-22.05 52.7-20.55 51.45-19.05 51.45-16.25L51.45-16.25ZM65.5-16.25L65.5-16.25 60.95-16.25Q60.95-19.05 59.72-20.55 58.5-22.05 56.25-22.05L56.25-22.05 56.25-26Q58.9-26 60.97-24.73 63.05-23.45 64.27-21.25 65.5-19.05 65.5-16.25ZM46.9-9L46.9-9 51.45-9Q51.45-6.25 52.7-4.73 53.95-3.2 56.15-3.2L56.15-3.2 56.15 0.75Q53.5 0.75 51.42-0.53 49.35-1.8 48.12-4 46.9-6.2 46.9-9ZM60.95-9L65.5-9Q65.5-6.2 64.27-4 63.05-1.8 60.97-0.53 58.9 0.75 56.25 0.75L56.25 0.75 56.25-3.2Q58.5-3.2 59.72-4.73 60.95-6.25 60.95-9L60.95-9ZM87.59 0L82.84 0 73.89-13.95 78.24-15.4 87.59 0ZM86.99-25.25L74.04-9 70.54-11.35 81.49-25.25 86.99-25.25ZM74.69 0L70.14 0 70.14-36 74.69-36 74.69 0ZM103.19 0L98.99 0 106.79-25.25 111.34-25.25 103.19 0ZM102.69 0L98.54 0 90.34-25.25 94.89-25.25 102.69 0ZM131.99-11.25L114.94-11.25 114.94-14.5 131.99-14.5 131.99-11.25ZM122.94 0.8L122.69 0.8 122.69-3.15 122.94-3.15 122.94 0.8ZM118.04-8.95L113.49-8.95 113.49-16.3 118.04-16.3 118.04-8.95ZM131.99-14.5L127.44-14.5 127.44-17.1 131.99-17.1 131.99-14.5ZM131.99-17.1L131.99-17.1 127.44-17.1Q127.44-19.3 126.11-20.7 124.79-22.1 122.69-22.1L122.69-22.1 122.69-26Q125.39-26 127.46-24.85 129.54-23.7 130.76-21.68 131.99-19.65 131.99-17.1ZM127.64-7.5L127.64-7.5 131.89-6.65Q131.59-4.5 130.34-2.8 129.09-1.1 127.19-0.15 125.29 0.8 122.94 0.8L122.94 0.8 122.94-3.15Q124.74-3.15 126.06-4.23 127.39-5.3 127.64-7.5ZM118.04-16.25L113.49-16.25Q113.49-19.1 114.71-21.28 115.94-23.45 118.01-24.73 120.09-26 122.74-26L122.74-26 122.74-22.1Q120.54-22.1 119.29-20.58 118.04-19.05 118.04-16.25L118.04-16.25ZM113.49-8.95L113.49-8.95 118.04-8.95Q118.04-6.2 119.29-4.67 120.54-3.15 122.74-3.15L122.74-3.15 122.74 0.8Q120.09 0.8 118.01-0.48 115.94-1.75 114.71-3.95 113.49-6.15 113.49-8.95ZM141.19 0L136.64 0 136.64-25.25 141.19-25.25 141.19 0ZM141.19-16.9L139.14-16.9Q139.14-19.45 139.99-21.48 140.84-23.5 142.31-24.65 143.79-25.8 145.59-25.8L145.59-25.8 145.19-21.55Q143.44-21.55 142.31-20.23 141.19-18.9 141.19-16.9L141.19-16.9ZM149.74-24.2L148.19-20.4Q147.59-20.9 146.76-21.23 145.94-21.55 145.19-21.55L145.19-21.55 145.59-25.8Q146.74-25.8 147.84-25.38 148.94-24.95 149.74-24.2L149.74-24.2ZM163.83-6.5L163.83-6.5Q163.83-7.75 162.93-8.58 162.03-9.4 160.61-10.08 159.18-10.75 157.61-11.45 156.03-12.15 154.61-13.08 153.18-14 152.28-15.43 151.38-16.85 151.38-18.9L151.38-18.9Q151.38-18.9 151.81-18.9 152.23-18.9 152.91-18.9 153.58-18.9 154.23-18.9 154.88-18.9 155.33-18.9 155.78-18.9 155.78-18.9L155.78-18.9Q155.78-17.65 156.68-16.82 157.58-16 159.01-15.35 160.43-14.7 162.03-13.98 163.63-13.25 165.03-12.3 166.43-11.35 167.36-9.98 168.28-8.6 168.28-6.5L168.28-6.5Q168.28-6.5 167.83-6.5 167.38-6.5 166.71-6.5 166.03-6.5 165.38-6.5 164.73-6.5 164.28-6.5 163.83-6.5 163.83-6.5ZM159.58 0.75L159.58 0.75 159.58-3.2Q161.43-3.2 162.63-4.13 163.83-5.05 163.83-6.5L163.83-6.5 168.28-6.5Q168.28-4.4 167.16-2.75 166.03-1.1 164.08-0.18 162.13 0.75 159.58 0.75ZM155.78-18.9L151.38-18.9Q151.38-20.95 152.41-22.58 153.43-24.2 155.28-25.13 157.13-26.05 159.38-26.05L159.38-26.05 159.38-22.1Q157.83-22.1 156.81-21.2 155.78-20.3 155.78-18.9L155.78-18.9ZM150.63-6.7L154.83-7.55Q155.08-5.35 156.43-4.28 157.78-3.2 159.58-3.2L159.58-3.2 159.58 0.75Q157.28 0.75 155.33-0.2 153.38-1.15 152.16-2.85 150.93-4.55 150.63-6.7L150.63-6.7ZM168.33-18.6L164.08-17.75Q163.83-20 162.51-21.05 161.18-22.1 159.38-22.1L159.38-22.1 159.38-26.05Q161.73-26.05 163.63-25.1 165.53-24.15 166.78-22.48 168.03-20.8 168.33-18.6L168.33-18.6ZM190.23-11.25L173.18-11.25 173.18-14.5 190.23-14.5 190.23-11.25ZM181.18 0.8L180.93 0.8 180.93-3.15 181.18-3.15 181.18 0.8ZM176.28-8.95L171.73-8.95 171.73-16.3 176.28-16.3 176.28-8.95ZM190.23-14.5L185.68-14.5 185.68-17.1 190.23-17.1 190.23-14.5ZM190.23-17.1L190.23-17.1 185.68-17.1Q185.68-19.3 184.36-20.7 183.03-22.1 180.93-22.1L180.93-22.1 180.93-26Q183.63-26 185.71-24.85 187.78-23.7 189.01-21.68 190.23-19.65 190.23-17.1ZM185.88-7.5L185.88-7.5 190.13-6.65Q189.83-4.5 188.58-2.8 187.33-1.1 185.43-0.15 183.53 0.8 181.18 0.8L181.18 0.8 181.18-3.15Q182.98-3.15 184.31-4.23 185.63-5.3 185.88-7.5ZM176.28-16.25L171.73-16.25Q171.73-19.1 172.96-21.28 174.18-23.45 176.26-24.73 178.33-26 180.98-26L180.98-26 180.98-22.1Q178.78-22.1 177.53-20.58 176.28-19.05 176.28-16.25L176.28-16.25ZM171.73-8.95L171.73-8.95 176.28-8.95Q176.28-6.2 177.53-4.67 178.78-3.15 180.98-3.15L180.98-3.15 180.98 0.8Q178.33 0.8 176.26-0.48 174.18-1.75 172.96-3.95 171.73-6.15 171.73-8.95Z" opacity="1" transform="matrix(1,0,0,1,0,0)" fill="#010536" class="wordmark-text-0" data-fill-palette-color="quaternary" id="text-0"></path></svg></g></svg></g><g transform="matrix(1,0,0,1,0,51.781389741294625)"><svg viewBox="0 0 213.15844122715714 25.88910298405606" height="25.88910298405606" width="213.15844122715714"><g transform="matrix(1,0,0,1,0,0)"><svg width="213.15844122715714" viewBox="4.52 -35.64 298.3 36.230000000000004" height="25.88910298405606" data-palette-color="#010536"><path d="M4.52-35.11L15.5-35.11Q17.82-35.11 19.89-34.57 21.95-34.03 23.54-32.86L23.54-32.86Q25.15-31.67 26.06-29.83 26.98-28 26.98-25.51L26.98-25.51Q26.98-23.02 26.06-21.19 25.15-19.36 23.54-18.16L23.54-18.16Q22.29-17.24 20.76-16.72 19.24-16.21 17.5-16.02L17.5-16.02 17.48-15.97Q18.19-15.5 19.04-14.66 19.9-13.82 20.83-12.67L20.83-12.67Q21.75-11.52 22.73-10.19 23.71-8.86 24.71-7.4L24.71-7.4 29.79 0 24.41 0 18.9-8.54Q17.41-10.89 16.32-12.33 15.23-13.77 14.26-14.6L14.26-14.6Q13.31-15.43 12.3-15.72 11.3-16.02 9.99-16.02L9.99-16.02 9.06-16.02 9.06 0 4.52 0 4.52-35.11ZM9.06-19.58L15.5-19.58Q17.04-19.58 18.31-19.92 19.58-20.26 20.5-20.98 21.41-21.7 21.92-22.83 22.44-23.95 22.44-25.51L22.44-25.51Q22.44-27.08 21.92-28.2 21.41-29.32 20.5-30.04 19.58-30.76 18.31-31.1 17.04-31.45 15.5-31.45L15.5-31.45 9.06-31.45 9.06-19.58ZM71.95-4.71L73.17-1.42Q70.46-0.34 68.08 0.12 65.7 0.59 63.82 0.59L63.82 0.59Q60.94 0.59 58.79-0.33 56.65-1.25 55.22-2.91 53.79-4.57 53.07-6.87 52.35-9.18 52.35-11.96L52.35-11.96Q52.35-13.67 52.59-15.38 52.84-17.09 53.37-18.64 53.91-20.19 54.78-21.53 55.65-22.88 56.89-23.85 58.14-24.83 59.8-25.39 61.46-25.95 63.58-25.95L63.58-25.95Q69.02-25.95 71.78-22.55 74.54-19.14 74.54-12.79L74.54-12.79 74.54-11.45 56.67-11.45Q56.67-9.4 57.11-7.82 57.55-6.25 58.46-5.16 59.38-4.08 60.78-3.52 62.19-2.95 64.12-2.95L64.12-2.95Q65.19-2.95 66.25-3.11 67.31-3.27 68.32-3.53 69.32-3.78 70.23-4.1 71.15-4.42 71.95-4.71L71.95-4.71ZM56.79-14.82L70.32-14.82Q70.12-18.77 68.43-20.59 66.73-22.41 63.58-22.41L63.58-22.41Q60.43-22.41 58.78-20.59 57.13-18.77 56.79-14.82L56.79-14.82ZM101.52-20.9L101.52-20.9 100.45-24.32Q104.55-25.95 109.04-25.95L109.04-25.95Q112.97-25.95 115.05-24.63L115.05-24.63Q117.42-23.12 117.42-19.48L117.42-19.48 117.42-9.5Q117.42-7.5 117.47-5.4L117.47-5.4Q117.49-4.15 117.71-2.81L117.71-2.81Q117.91-1.54 118.22-0.39L118.22-0.39 114.22 0.49Q113.66-1.15 113.51-3.17L113.51-3.17 113.02-3.22Q110 0.59 105.31 0.59L105.31 0.59Q101.89 0.59 99.82-1.31 97.74-3.2 97.74-6.64L97.74-6.64Q97.74-9.2 98.88-10.84 100.01-12.48 102.09-13.6L102.09-13.6Q105.36-15.38 111.24-15.38L111.24-15.38Q112.02-15.38 113.34-15.33L113.34-15.33 113.34-19.04Q113.34-20.8 112.27-21.58 111.19-22.36 108.9-22.36L108.9-22.36Q105.55-22.36 101.52-20.9ZM113.34-7.13L113.34-7.13 113.34-12.26Q112.68-12.3 111.41-12.3L111.41-12.3Q109.26-12.3 107.46-11.94L107.46-11.94Q104.77-11.4 103.29-10.24 101.82-9.08 101.82-6.91L101.82-6.91Q101.82-3 106.07-3L106.07-3Q108.26-3 110.17-4.17L110.17-4.17Q111.73-5.15 113.34-7.13ZM159.24-25.34L159.24-35.16 163.44-35.16 163.44-9.59Q163.44-5.3 163.57-3.96L163.57-3.96Q163.69-2.29 164.13-0.39L164.13-0.39 160.07 0.51Q159.66-0.85 159.46-2.25L159.46-2.25Q159.22-3.96 159.2-4.88L159.2-4.88 158.83-4.88Q157.56-2.25 156.02-1L156.02-1Q154.17 0.59 151.43 0.59L151.43 0.59Q149.04 0.59 147.31-0.45 145.57-1.49 144.61-3.34 143.64-5.2 143.19-7.42 142.74-9.64 142.74-12.33L142.74-12.33Q142.74-15.36 143.36-17.77 143.99-20.19 145.28-22.06 146.57-23.93 148.75-24.94 150.92-25.95 153.85-25.95L153.85-25.95Q156.14-25.95 159.24-25.34L159.24-25.34ZM159.24-10.28L159.24-10.28 159.24-21.63Q156.49-22.36 154.17-22.36L154.17-22.36Q152.19-22.36 150.76-21.64 149.33-20.92 148.53-19.62 147.72-18.31 147.36-16.7 146.99-15.09 146.99-13.09L146.99-13.09Q146.99-11.72 147.05-10.68 147.11-9.64 147.27-8.44 147.43-7.23 147.77-6.37 148.11-5.52 148.62-4.79 149.14-4.05 149.96-3.67 150.77-3.3 151.85-3.3L151.85-3.3Q154.44-3.3 156.34-5.37L156.34-5.37Q157.71-6.88 159.24-10.28ZM226.35-35.23L226.35-35.23Q227.47-35.23 228.3-34.45L228.3-34.45Q229.1-33.59 229.1-32.45L229.1-32.45Q229.1-31.27 228.3-30.47L228.3-30.47Q227.47-29.64 226.35-29.64L226.35-29.64Q225.17-29.64 224.34-30.47L224.34-30.47Q223.51-31.25 223.51-32.45L223.51-32.45Q223.51-33.62 224.34-34.45L224.34-34.45Q225.17-35.23 226.35-35.23ZM224.2 0L224.2-25.39 228.4-25.39 228.4 0 224.2 0ZM258.33-25.39L258.33-31.2 262.53-31.2 262.53-25.39 271.08-25.39 271.08-21.85 262.53-21.85 262.53-7.28Q262.53-5.81 262.62-5.04 262.7-4.27 263.04-3.83L263.04-3.83Q263.68-2.95 265.61-2.95L265.61-2.95Q266.68-2.95 267.68-3.17L267.68-3.17Q268.71-3.39 269.56-3.66L269.56-3.66Q270.25-2.17 270.81-0.39L270.81-0.39Q267.93 0.59 265 0.59L265 0.59Q262.87 0.59 261.59 0.11 260.31-0.37 259.58-1.44L259.58-1.44Q258.82-2.56 258.58-4.13 258.33-5.69 258.33-8.45L258.33-8.45 258.33-21.85 254.67-21.85 254.67-25.39 258.33-25.39ZM297.6-29.2L295.62-33.28Q296.47-34.59 297.43-35.12 298.38-35.64 299.4-35.64L299.4-35.64Q300.23-35.64 300.82-35.3 301.4-34.96 301.77-34.39 302.14-33.81 302.31-33.03 302.48-32.25 302.48-31.37L302.48-31.37 301.48-10.3 298.57-9.47 297.6-29.2ZM299.84-5.47L299.84-5.47Q300.45-5.47 301-5.24 301.55-5 301.95-4.6 302.36-4.2 302.59-3.65 302.82-3.1 302.82-2.49L302.82-2.49Q302.82-1.9 302.59-1.37 302.36-0.83 301.95-0.42 301.55 0 301 0.24 300.45 0.49 299.84 0.49L299.84 0.49Q299.26 0.49 298.71 0.26 298.16 0.02 297.74-0.38 297.33-0.78 297.08-1.33 296.84-1.88 296.84-2.49L296.84-2.49Q296.84-3.1 297.08-3.65 297.33-4.2 297.73-4.6 298.13-5 298.68-5.24 299.23-5.47 299.84-5.47Z" opacity="1" transform="matrix(1,0,0,1,0,0)" fill="#010536" class="slogan-text-1" data-fill-palette-color="quaternary" id="text-1"></path></svg></g></svg></g></svg></g></svg></g><g transform="matrix(1,0,0,1,60.576097350820866,0)"><svg viewBox="0 0 92.00624652551541 107.34062094643465" height="107.34062094643465" width="92.00624652551541"><g><svg xmlns:dc="http://purl.org/dc/elements/1.1/" xmlns:cc="http://creativecommons.org/ns#" xmlns:rdf="http://www.w3.org/1999/02/22-rdf-syntax-ns#" xmlns:svg="http://www.w3.org/2000/svg" xmlns="http://www.w3.org/2000/svg" xmlns:sodipodi="http://sodipodi.sourceforge.net/DTD/sodipodi-0.dtd" xmlns:inkscape="http://www.inkscape.org/namespaces/inkscape" preserveAspectRatio="xMidYMid" viewBox="0 0 54 63" version="1.1" x="0" y="0" height="107.34062094643465" width="92.00624652551541" class="icon-icon-0" data-fill-palette-color="quaternary" id="icon-0"><path d="M9.5 0A9.5 9.5 0 0 0 0 9.5V53.5A9.5 9.5 0 0 0 9.5 63H44.5C49.746 63 54 58.746 54 53.5V9.5A9.5 9.5 0 0 0 44.5 0zM9.5 3H44.5A6.5 6.5 0 0 1 51 9.5V53.5A6.5 6.5 0 0 1 44.5 60H9.5A6.5 6.5 0 0 1 3 53.5V9.5A6.5 6.5 0 0 1 9.5 3M9.563 11A1.5 1.5 0 0 0 9.563 14H45.563A1.5 1.5 0 0 0 45.563 11zM9.563 19A1.5 1.5 0 0 0 9.563 22H45.563A1.5 1.5 0 0 0 45.563 19zM24.563 32A1.5 1.5 0 0 0 24.563 35H34.563A1.5 1.5 0 0 0 34.563 32z" fill="#010536" fill-rule="evenodd" data-fill-palette-color="quaternary"></path></svg></g></svg></g><g></g></svg></g></svg></g></svg></g></svg></g><defs></defs></svg><rect width="337.6820325494443" height="337.6820325494443" fill="none" stroke="none" visibility="hidden"></rect></g></svg></g></svg>